<?xml version="1.0" standalone="no"?>
<!DOCTYPE svg PUBLIC "-//W3C//DTD SVG 20010904//EN"
 "http://www.w3.org/TR/2001/REC-SVG-20010904/DTD/svg10.dtd">
<svg version="1.0" xmlns="http://www.w3.org/2000/svg"
 width="402.000000pt" height="402.000000pt" viewBox="0 0 402.000000 402.000000"
 preserveAspectRatio="xMidYMid meet">
<metadata>
Created by potrace 1.11, written by Peter Selinger 2001-2013
</metadata>
<g transform="translate(0.000000,402.000000) scale(0.100000,-0.100000)"
fill="#000000" stroke="none">
<path d="M1950 3368 c-19 -10 -45 -18 -56 -18 -21 0 -57 -24 -100 -67 -21 -21
-22 -27 -1 -24 10 2 8 -21 -4 -39 -8 -13 -9 -12 -7 4 2 10 -3 21 -11 24 -10 3
-12 -1 -8 -17 3 -14 0 -21 -9 -21 -8 0 -14 -4 -14 -9 0 -5 10 -7 23 -4 18 4
19 3 7 -6 -12 -9 -8 -10 15 -5 16 4 35 7 43 7 7 0 11 5 9 11 -3 6 -11 10 -18
8 -12 -3 -12 -1 0 10 11 10 14 10 18 1 7 -19 38 -16 83 7 29 15 41 17 46 8 4
-6 2 -14 -4 -16 -7 -2 -12 -8 -12 -13 0 -13 60 22 60 36 0 5 5 2 11 -8 10 -16
12 -16 29 5 11 13 19 19 20 15 0 -4 6 -2 14 5 7 7 11 20 9 28 -3 8 1 7 7 -4
10 -15 14 -16 21 -5 15 25 10 64 -11 77 -17 10 -20 10 -20 -3 0 -18 -16 -20
-26 -4 -4 8 -9 7 -15 -2 -6 -10 -9 -10 -9 -2 0 7 -12 18 -27 26 -24 11 -33 11
-63 -5z"/>
<path d="M1910 3210 c0 -5 5 -10 10 -10 6 0 10 5 10 10 0 6 -4 10 -10 10 -5 0
-10 -4 -10 -10z"/>
<path d="M1780 3150 c0 -5 4 -10 9 -10 6 0 13 5 16 10 3 6 -1 10 -9 10 -9 0
-16 -4 -16 -10z"/>
<path d="M1781 3078 c12 -18 16 -27 9 -20 -22 19 -40 14 -40 -10 0 -19 -2 -20
-10 -8 -5 8 -10 13 -11 10 -10 -60 -8 -67 19 -77 l27 -12 -27 6 c-32 6 -38
-12 -7 -20 12 -3 19 -9 16 -14 -3 -4 0 -15 6 -24 9 -11 30 -15 82 -15 39 1 75
4 82 9 6 4 14 1 16 -5 3 -7 6 2 6 21 1 33 2 34 15 16 8 -11 12 -23 10 -27 -2
-4 0 -9 5 -12 5 -4 12 3 16 14 8 26 29 26 22 0 -5 -19 3 -24 31 -21 7 1 12
-10 12 -28 0 -25 3 -28 21 -24 11 3 28 21 37 39 12 25 19 31 28 23 17 -14 35
-3 27 16 -3 9 1 15 10 15 8 0 17 11 19 25 5 22 2 25 -15 19 -15 -5 -18 -3 -11
7 4 8 -6 -1 -23 -18 -33 -35 -49 -42 -40 -19 4 9 -4 16 -21 21 -15 4 -21 9
-15 13 8 5 7 13 -3 26 -13 19 -14 19 -14 -7 0 -15 -4 -27 -10 -27 -5 0 -7 7
-4 15 5 11 -1 15 -22 15 -55 0 -72 10 -79 46 -5 31 -9 34 -41 34 -19 0 -45 -5
-56 -11 -16 -9 -19 -8 -13 2 6 9 4 11 -7 6 -9 -3 -24 3 -34 14 -28 31 -37 22
-13 -13z m274 -140 c6 -4 2 -8 -7 -8 -10 0 -18 7 -18 17 0 9 3 12 8 7 4 -5 12
-12 17 -16z"/>
<path d="M2002 2861 c-11 -7 -11 -9 2 -14 10 -4 16 -1 16 8 0 17 -1 17 -18 6z"/>
<path d="M2415 2800 c-17 -4 -43 -19 -57 -33 -15 -15 -35 -27 -44 -27 -10 0
-14 -3 -11 -7 4 -3 2 -11 -3 -18 -7 -8 -3 -11 13 -9 12 1 30 3 40 3 10 1 16 5
12 10 -3 6 21 13 55 17 33 4 63 11 67 17 5 9 -49 3 -81 -9 -6 -2 -12 4 -13 16
-1 11 3 20 8 20 6 0 7 -4 4 -10 -9 -15 18 -12 41 4 26 20 8 35 -31 26z"/>
<path d="M1721 2791 c-7 -5 -35 -8 -61 -6 -33 2 -54 -3 -71 -16 l-24 -19 25 0
25 0 -30 -20 -30 -20 30 -1 c45 0 104 -7 126 -14 21 -7 26 -25 7 -25 -36 -1
-96 -12 -123 -23 -37 -14 -156 -117 -149 -128 9 -15 54 -10 54 5 0 28 41 26
72 -4 16 -16 36 -26 43 -23 8 2 24 -2 37 -11 15 -11 17 -16 8 -16 -11 0 -12
-2 -3 -8 19 -12 -16 -38 -60 -45 -33 -5 -50 4 -29 16 4 2 1 2 -7 0 -7 -2 -30
2 -51 8 -30 9 -42 8 -66 -5 l-29 -16 28 5 c25 3 27 2 15 -12 -10 -13 -10 -15
0 -9 18 11 76 -19 97 -50 17 -26 14 -74 -5 -74 -5 0 -7 -7 -4 -15 4 -8 11 -15
17 -15 6 0 19 -8 30 -17 19 -17 20 -17 8 5 -8 15 -8 22 -1 22 6 0 13 -6 16
-14 3 -8 12 -12 21 -9 12 5 14 1 9 -15 -5 -15 -2 -22 14 -27 12 -4 19 -12 17
-19 -3 -8 6 -10 29 -8 19 2 34 8 34 14 0 5 -6 6 -12 2 -7 -4 -3 4 8 17 21 24
40 74 24 64 -4 -3 -10 2 -14 10 -3 8 -1 15 4 15 6 0 10 8 10 19 0 10 7 24 15
31 14 12 14 15 -1 31 -13 14 -14 19 -4 19 7 0 10 3 7 7 -4 3 14 22 40 40 52
37 93 95 93 131 0 15 -10 29 -31 40 -17 9 -47 27 -66 40 -19 12 -39 20 -44 17
-5 -4 -9 -1 -9 4 0 6 11 11 25 11 16 0 25 6 25 15 0 8 5 15 11 15 7 0 8 7 4
18 -4 9 -8 23 -8 30 0 15 -10 15 -25 0 -9 -9 -12 -9 -12 0 0 7 -5 12 -11 12
-6 0 -9 -7 -5 -15 4 -12 2 -13 -14 -3 -11 7 -15 15 -10 18 5 3 6 11 2 17 -5 7
-13 9 -21 4z m-111 -165 c0 -5 -78 -56 -86 -56 -12 0 30 42 51 51 22 9 35 11
35 5z m13 -62 c4 -23 2 -25 -22 -19 -36 9 -39 14 -17 31 27 20 33 18 39 -12z
m81 -369 c3 -8 1 -15 -4 -15 -6 0 -10 7 -10 15 0 8 2 15 4 15 2 0 6 -7 10 -15z"/>
<path d="M2273 2757 c-10 -17 6 -19 28 -4 l22 16 -22 -2 c-13 -1 -25 -5 -28
-10z"/>
<path d="M2296 2670 c-41 -13 -92 -50 -110 -81 -20 -34 -20 -45 -1 -29 9 8 15
9 15 2 0 -6 -4 -13 -9 -16 -4 -3 -6 -17 -3 -31 8 -43 104 -105 191 -124 80
-17 118 -15 124 8 6 24 0 31 -25 31 -11 0 -16 -5 -13 -10 4 -7 -7 -9 -32 -6
-21 2 -46 5 -56 5 -10 1 -16 5 -12 10 3 5 0 13 -6 16 -5 4 -8 14 -5 22 3 8 1
11 -4 8 -6 -3 -10 -3 -10 2 0 12 79 35 92 27 7 -5 8 -2 3 6 -6 10 -4 12 8 7
10 -3 17 -2 17 3 0 6 7 10 15 10 9 0 18 6 21 14 3 8 12 12 21 9 13 -5 13 -3 2
15 -7 11 -40 35 -72 51 -35 18 -52 31 -41 32 68 4 112 -17 138 -66 15 -27 51
-55 71 -55 3 0 -24 29 -59 64 -60 59 -69 64 -128 75 -74 13 -92 13 -132 1z
m170 -85 c19 -15 19 -15 0 -30 -26 -20 -46 -19 -47 3 0 10 -3 12 -6 5 -2 -7
-9 -13 -14 -13 -13 0 23 49 37 50 5 0 19 -7 30 -15z"/>
<path d="M2910 2613 c0 -22 2 -25 10 -13 13 20 13 40 0 40 -5 0 -10 -12 -10
-27z"/>
<path d="M1125 2621 c-8 -14 3 -51 16 -51 5 0 6 12 3 28 -8 34 -10 36 -19 23z"/>
<path d="M2004 2617 c-20 -23 -23 -46 -12 -109 15 -91 12 -134 -10 -175 -7
-13 -11 -23 -10 -24 2 -1 15 -2 31 -3 26 -3 35 13 27 49 -11 50 -8 87 14 192
6 26 -6 76 -20 79 -5 2 -14 -2 -20 -9z"/>
<path d="M2590 2515 c7 -8 20 -15 29 -15 13 1 13 3 -3 15 -26 19 -42 19 -26 0z"/>
<path d="M1056 2485 c-3 -8 -8 -38 -11 -67 l-6 -53 21 55 c11 30 20 60 20 67
0 18 -17 16 -24 -2z"/>
<path d="M2970 2480 c0 -8 5 -22 10 -30 9 -13 10 -13 10 0 0 8 -5 22 -10 30
-9 13 -10 13 -10 0z"/>
<path d="M2536 2421 c-21 -23 -20 -31 3 -31 10 0 21 9 24 20 7 27 -7 33 -27
11z"/>
<path d="M1164 2381 c4 -5 2 -21 -4 -35 l-9 -26 -36 21 c-41 25 -48 17 -43
-52 3 -41 5 -44 34 -47 28 -3 32 0 37 28 4 16 16 43 28 59 21 29 20 61 -1 61
-6 0 -9 -4 -6 -9z"/>
<path d="M2933 2343 c-16 -6 -17 -79 -1 -89 17 -11 40 27 33 56 -8 30 -16 39
-32 33z"/>
<path d="M2886 2267 c3 -10 9 -15 12 -12 3 3 0 11 -7 18 -10 9 -11 8 -5 -6z"/>
<path d="M1187 2243 c-4 -3 -7 -11 -7 -17 0 -6 5 -5 12 2 6 6 9 14 7 17 -3 3
-9 2 -12 -2z"/>
<path d="M2874 2207 c3 -26 1 -35 -6 -31 -7 5 -9 0 -6 -14 4 -12 2 -25 -3 -28
-5 -3 -9 -13 -9 -22 0 -15 2 -15 10 -2 8 13 10 12 10 -2 0 -10 5 -18 11 -18 7
0 10 14 7 37 -4 37 13 89 25 76 4 -3 7 -1 7 5 0 7 -9 12 -19 12 -11 0 -22 6
-25 13 -4 6 -4 -5 -2 -26z"/>
<path d="M1125 2210 c-25 -9 -50 -38 -41 -47 3 -4 12 -1 18 5 7 7 25 12 40 12
15 0 28 5 28 11 0 5 -4 8 -9 4 -5 -3 -11 1 -13 9 -2 9 -9 11 -23 6z"/>
<path d="M1850 2186 c-23 -29 2 -41 55 -26 51 14 48 27 -6 36 -25 4 -39 1 -49
-10z"/>
<path d="M2115 2190 c-7 -12 -10 -11 38 -13 32 -2 35 0 20 11 -20 15 -49 16
-58 2z"/>
<path d="M1654 2135 c-3 -8 -30 -34 -59 -58 -30 -25 -51 -48 -47 -52 4 -5 1
-5 -6 -1 -20 12 -42 -13 -43 -48 -1 -23 -3 -25 -6 -8 -5 27 -11 28 -34 1 -20
-23 -35 -101 -23 -120 4 -8 3 -10 -4 -5 -7 4 -12 16 -12 28 0 14 -5 18 -15 14
-12 -4 -14 0 -9 21 5 18 4 24 -5 19 -6 -4 -11 -17 -11 -30 0 -12 -6 -23 -13
-23 -19 0 -17 28 4 59 24 34 24 45 -2 58 -17 10 -18 14 -7 27 12 14 11 15 -8
5 -27 -15 -39 -42 -18 -42 25 0 12 -32 -21 -55 -25 -17 -31 -28 -33 -67 -3
-33 0 -48 8 -48 7 0 10 -6 7 -14 -3 -8 -1 -16 5 -18 15 -5 3 -25 -22 -38 -16
-8 -18 -8 -14 5 8 19 -10 20 -25 1 -8 -10 -9 -16 -1 -21 6 -3 7 -11 4 -17 -4
-6 0 -6 13 1 29 15 33 5 17 -34 -17 -42 -18 -50 -1 -37 10 8 16 6 26 -10 11
-17 10 -22 -1 -29 -9 -6 -9 -9 -1 -9 7 0 10 -6 7 -13 -5 -13 180 -247 196
-247 5 0 25 -16 45 -35 64 -65 139 -120 210 -154 38 -18 75 -34 81 -35 7 -1
18 -7 25 -13 8 -5 21 -11 29 -11 8 0 33 -5 55 -11 51 -13 68 -14 60 -1 -3 5 9
3 28 -5 24 -10 44 -11 72 -5 21 5 42 7 46 4 4 -2 10 0 13 5 3 4 24 11 46 15
22 3 40 10 40 14 0 4 21 14 46 21 28 9 48 21 51 31 3 10 18 20 34 24 18 3 34
15 41 31 6 14 16 25 23 25 13 0 76 54 78 67 1 4 14 19 29 31 31 26 37 48 12
38 -14 -5 -15 -4 -5 8 7 8 18 13 24 11 13 -5 68 63 101 125 12 22 28 48 37 59
16 17 16 20 1 35 -11 10 -12 16 -4 16 7 0 12 -5 12 -11 0 -8 5 -8 15 1 12 10
13 16 4 27 -7 7 -9 16 -5 20 3 3 6 1 6 -6 0 -19 25 9 32 37 4 15 2 25 -8 29
-8 3 -11 9 -8 14 3 5 0 9 -5 9 -6 0 -11 11 -11 24 0 26 -20 35 -60 26 -30 -6
-32 -29 -5 -50 11 -8 20 -26 21 -39 1 -21 -1 -22 -11 -8 -7 9 -15 14 -18 10
-4 -3 -2 -12 5 -20 6 -7 8 -16 4 -20 -9 -9 -38 33 -53 77 -17 47 -16 61 2 30
l14 -25 1 28 c0 22 4 27 26 27 23 0 25 3 19 31 -4 17 -8 37 -9 43 -4 30 -33
43 -52 24 -3 -4 -12 -4 -20 -1 -17 6 -18 -1 -4 -27 8 -16 8 -18 -5 -14 -11 5
-15 -1 -15 -26 0 -28 -2 -31 -15 -20 -8 7 -22 10 -30 6 -9 -3 -15 0 -15 9 0
19 17 28 23 13 3 -7 6 -3 6 9 1 12 6 25 11 28 6 3 10 12 9 18 0 9 -2 9 -6 0
-8 -22 -21 -14 -15 9 4 17 2 20 -12 15 -11 -4 -16 -2 -14 6 1 6 -4 27 -12 44
-11 24 -20 31 -32 27 -13 -4 -16 -1 -12 10 3 9 -12 32 -40 62 -25 26 -46 43
-46 38 0 -12 -71 -60 -84 -56 -5 2 -13 -3 -17 -10 -6 -9 -9 -7 -9 7 0 13 -3
16 -8 8 -6 -9 -12 -8 -24 6 -9 11 -14 22 -11 25 4 3 1 6 -6 6 -7 0 -9 5 -5 13
6 9 4 9 -8 -1 -12 -9 -18 -10 -23 -2 -4 6 -14 9 -23 7 -10 -2 -28 2 -42 9 -17
8 -41 9 -75 3 -74 -12 -102 -11 -118 6 -13 13 -16 13 -27 -1 -8 -8 -21 -12
-31 -9 -11 4 -19 2 -19 -3 0 -5 -13 -15 -29 -22 -16 -6 -32 -18 -35 -26 -3 -8
-13 -14 -21 -14 -9 0 -14 4 -11 9 3 5 0 8 -7 8 -21 -1 -97 38 -93 48 2 6 9 9
15 8 17 -4 13 14 -4 21 -9 3 -18 -1 -21 -9z m713 -207 c15 -17 15 -20 3 -28
-8 -6 -32 -10 -52 -10 -33 0 -38 -3 -38 -23 0 -16 -9 -28 -26 -35 -37 -18 -22
-29 32 -25 l47 5 -6 -29 c-4 -22 -1 -34 13 -45 10 -9 20 -14 23 -12 2 3 7 -4
10 -16 5 -19 -6 -25 -40 -21 -6 1 -9 -7 -6 -18 2 -10 -1 -22 -8 -26 -8 -6 -10
-4 -4 5 5 9 4 11 -3 6 -8 -4 -10 -25 -6 -56 3 -32 2 -50 -5 -50 -6 0 -11 7
-11 15 0 14 -3 14 -22 1 -13 -7 -35 -16 -50 -20 -25 -6 -28 -4 -28 20 0 19 4
25 14 21 11 -5 14 1 11 23 -2 17 3 34 11 41 23 19 16 36 -17 43 -51 10 -78 7
-119 -13 -22 -11 -40 -16 -40 -13 0 4 -27 8 -59 10 -43 2 -69 -2 -93 -15 -18
-9 -36 -16 -40 -15 -5 1 -8 -7 -8 -18 0 -17 -3 -19 -19 -8 -15 9 -23 9 -35 -1
-12 -10 -16 -10 -16 -2 0 7 -5 9 -10 6 -7 -4 -9 2 -5 18 4 14 -1 41 -10 63 -9
21 -21 52 -26 68 -8 26 -6 28 14 22 12 -4 38 -9 59 -11 20 -2 51 -10 70 -18
68 -30 96 -38 135 -39 51 0 75 7 126 42 23 15 51 29 61 31 35 7 12 24 -26 21
-31 -3 -38 0 -38 15 -1 17 -2 16 -12 -2 -6 -11 -12 -21 -13 -23 -5 -7 -120
-13 -142 -8 -15 4 -23 14 -24 29 -2 22 -2 22 -6 -1 -4 -19 -10 -23 -36 -21
-18 2 -38 -1 -46 -5 -9 -6 -23 2 -42 23 -29 33 -37 47 -19 36 6 -3 10 -1 10 4
0 6 -13 11 -29 11 -35 0 -91 19 -91 31 0 5 0 12 0 16 0 10 31 12 255 18 218 5
334 11 341 18 9 9 74 -16 91 -35z m-907 -48 c0 -5 -2 -10 -4 -10 -3 0 -8 5
-11 10 -3 6 -1 10 4 10 6 0 11 -4 11 -10z m1220 6 c0 -2 -7 -9 -15 -16 -13
-11 -14 -10 -9 4 5 14 24 23 24 12z m-1370 -36 c0 -5 -5 -10 -11 -10 -5 0 -7
5 -4 10 3 6 8 10 11 10 2 0 4 -4 4 -10z m1256 -84 c1 -16 -3 -23 -11 -20 -9 4
-12 -4 -11 -26 1 -19 -4 -39 -13 -48 -15 -14 -17 -13 -22 19 l-5 34 -9 -28
c-5 -21 -10 -25 -16 -15 -12 17 -11 31 0 23 5 -3 12 4 16 15 4 11 11 17 17 14
7 -5 9 2 6 20 -4 18 -1 26 8 26 8 0 14 4 14 10 0 21 25 -2 26 -24z m174 -39
c0 -6 7 -19 17 -29 19 -21 6 -24 -21 -3 -10 7 -15 19 -11 25 4 6 -1 20 -10 30
-9 10 -14 24 -10 30 7 11 35 -31 35 -53z m-1415 24 c-3 -6 -11 -11 -17 -11 -6
0 -6 6 2 15 14 17 26 13 15 -4z m41 -30 c0 -11 -3 -18 -7 -16 -3 3 -15 -4 -26
-15 -32 -29 -37 -10 -6 21 34 33 39 34 39 10z m44 -25 c0 -3 -4 -8 -10 -11 -5
-3 -10 -1 -10 4 0 6 5 11 10 11 6 0 10 -2 10 -4z m1220 -22 c0 -8 -4 -12 -10
-9 -5 3 -10 13 -10 21 0 8 5 12 10 9 6 -3 10 -13 10 -21z m-32 -9 c-3 -3 -9 2
-12 12 -6 14 -5 15 5 6 7 -7 10 -15 7 -18z m106 -19 c-3 -9 -10 -13 -15 -10
-5 3 -3 11 4 19 15 16 19 13 11 -9z m-974 -6 c0 -5 -5 -10 -11 -10 -5 0 -7 5
-4 10 3 6 8 10 11 10 2 0 4 -4 4 -10z m760 -145 c0 -8 -2 -15 -4 -15 -2 0 -6
7 -10 15 -3 8 -1 15 4 15 6 0 10 -7 10 -15z m-1060 1 c0 -9 -30 -14 -35 -6 -4
6 3 10 14 10 12 0 21 -2 21 -4z m1100 -71 c0 -3 -9 -1 -20 5 -11 6 -20 18 -20
27 0 14 3 13 20 -5 11 -12 20 -24 20 -27z m-296 -11 c3 -8 2 -12 -4 -9 -6 3
-10 10 -10 16 0 14 7 11 14 -7z m-163 -36 c10 -18 9 -20 -6 -15 -9 4 -25 7
-36 7 -12 0 -16 5 -13 15 9 22 42 18 55 -7z m-106 -14 c19 -8 19 -8 -4 -14
-14 -3 -27 -12 -29 -19 -3 -9 2 -11 19 -7 13 3 18 3 12 0 -7 -3 -13 -13 -13
-22 -1 -14 -4 -13 -19 4 -13 16 -22 19 -34 12 -14 -7 -17 -5 -17 12 0 12 4 19
9 16 5 -3 11 2 14 13 4 18 26 20 62 5z m-222 -17 c3 -8 1 -20 -4 -28 -6 -10
-9 -7 -9 14 0 29 5 35 13 14z m417 -3 c0 -8 4 -12 10 -9 6 3 7 -1 4 -9 -8 -20
-18 -20 -38 0 -21 21 -20 29 4 31 12 1 20 -4 20 -13z m-375 -33 c-14 -29 -35
-49 -35 -36 0 9 40 65 46 65 2 0 -2 -13 -11 -29z m593 -14 c5 -24 -15 -21 -21
4 -3 13 -1 19 6 16 7 -2 13 -11 15 -20z m-558 -38 c0 -6 -4 -7 -10 -4 -5 3
-10 11 -10 16 0 6 5 7 10 4 6 -3 10 -11 10 -16z m-30 -43 c0 -15 -18 -31 -26
-23 -7 7 7 37 17 37 5 0 9 -6 9 -14z m420 -26 c0 -5 -5 -10 -11 -10 -5 0 -7 5
-4 10 3 6 8 10 11 10 2 0 4 -4 4 -10z m-13 -62 c-3 -8 -6 -5 -6 6 -1 11 2 17
5 13 3 -3 4 -12 1 -19z"/>
<path d="M2245 1579 c-4 -6 -5 -12 -2 -15 2 -3 7 2 10 11 7 17 1 20 -8 4z"/>
<path d="M1190 2090 c-9 -6 -10 -10 -3 -10 6 0 15 5 18 10 8 12 4 12 -15 0z"/>
<path d="M1161 2064 c0 -11 3 -14 6 -6 3 7 2 16 -1 19 -3 4 -6 -2 -5 -13z"/>
<path d="M2816 2065 c-3 -8 -2 -15 3 -15 4 0 8 -13 7 -29 -1 -25 -4 -28 -19
-20 -15 9 -17 6 -12 -20 4 -22 0 -33 -12 -39 -15 -9 -15 -12 5 -43 12 -19 22
-28 22 -21 0 7 5 10 11 7 6 -5 4 -11 -6 -19 -10 -7 -14 -18 -9 -29 10 -27 19
-20 31 23 10 38 9 40 -14 40 -13 0 -26 7 -30 15 -9 24 5 30 25 12 10 -10 22
-17 26 -17 8 0 -3 42 -13 50 -4 3 1 20 10 37 9 18 19 30 22 27 3 -3 3 3 1 13
-7 27 -40 47 -48 28z"/>
<path d="M1288 2000 c-9 -10 -22 -28 -28 -41 -9 -16 -14 -18 -20 -9 -4 7 -13
9 -19 6 -16 -10 -14 -26 3 -20 8 3 17 1 21 -5 3 -6 2 -11 -4 -11 -6 0 -8 -6
-5 -14 3 -8 0 -17 -5 -21 -6 -3 -9 -11 -6 -16 4 -5 0 -12 -8 -15 -14 -5 -17
-47 -4 -60 10 -10 51 90 50 124 0 17 3 32 8 32 9 0 43 60 37 66 -2 2 -11 -5
-20 -16z"/>
<path d="M1231 2001 c-8 -6 -9 -11 -3 -15 6 -3 14 -1 17 5 9 14 2 20 -14 10z"/>
<path d="M1320 1955 c-11 -13 -10 -14 4 -9 9 3 16 10 16 15 0 13 -6 11 -20 -6z"/>
<path d="M1191 1920 c0 -8 3 -21 8 -28 7 -11 9 -10 14 3 4 9 3 13 -2 10 -5 -3
-12 3 -14 12 -3 13 -5 14 -6 3z"/>
<path d="M2761 1858 c-1 -9 -9 -21 -18 -27 -10 -5 -14 -13 -10 -17 5 -5 12 -2
16 5 5 7 14 10 20 7 13 -8 13 1 1 29 -7 16 -9 17 -9 3z"/>
<path d="M1259 1849 c0 -2 -2 -12 -4 -22 -2 -10 -11 -27 -19 -36 -9 -10 -16
-23 -16 -30 0 -17 25 -8 25 10 0 8 4 20 9 28 7 11 10 11 18 0 5 -9 6 -3 2 16
-6 28 -13 44 -15 34z"/>
<path d="M2711 1824 c0 -11 3 -14 6 -6 3 7 2 16 -1 19 -3 4 -6 -2 -5 -13z"/>
<path d="M1344 1072 c8 -16 26 -43 39 -58 13 -16 63 -87 110 -159 48 -71 94
-141 104 -155 23 -33 124 -132 129 -127 2 2 -5 12 -15 21 -11 10 -17 25 -14
34 4 10 2 13 -5 8 -7 -4 -15 0 -19 11 -7 18 -15 29 -43 60 -13 15 -13 16 2 11
20 -8 60 20 41 28 -7 3 -13 10 -13 15 0 6 4 8 8 5 5 -3 21 4 38 15 16 11 23
19 14 19 -13 0 -13 2 0 9 21 14 32 2 25 -26 -3 -14 -2 -22 3 -19 6 3 16 -2 23
-11 8 -9 9 -14 2 -10 -7 5 -9 1 -6 -12 3 -14 13 -18 35 -17 38 1 47 -17 16
-31 -20 -10 -17 -11 23 -10 32 2 45 -2 42 -10 -3 -7 9 -11 36 -10 22 1 43 8
46 15 2 6 0 12 -6 12 -6 0 -7 5 -4 10 4 6 12 7 18 4 7 -4 9 -4 5 1 -4 4 -4 13
1 19 14 19 22 66 11 66 -6 0 -16 14 -21 30 -6 17 -15 30 -21 30 -5 0 -23 9
-39 21 -16 11 -33 17 -39 14 -6 -3 -13 1 -16 9 -3 9 -14 16 -23 16 -26 0 -66
26 -63 40 3 11 0 11 -12 0 -11 -8 -16 -9 -16 -1 0 19 -31 12 -52 -11 -11 -13
-17 -18 -14 -12 3 6 -7 17 -22 25 -37 18 -62 40 -57 49 2 4 -11 6 -31 4 -35
-2 -114 30 -197 83 l-38 24 15 -29z m336 -191 c0 -6 -4 -13 -10 -16 -5 -3 -10
1 -10 9 0 9 5 16 10 16 6 0 10 -4 10 -9z m50 -37 c0 -2 -15 -4 -32 -4 -23 0
-29 3 -19 9 12 8 51 4 51 -5z m45 -64 c3 -5 1 -10 -4 -10 -6 0 -11 5 -11 10 0
6 2 10 4 10 3 0 8 -4 11 -10z"/>
<path d="M2646 998 c-3 -13 -6 -43 -6 -68 0 -67 -24 -149 -72 -242 -39 -77
-98 -170 -98 -154 0 4 -10 -3 -22 -14 -12 -11 -28 -18 -36 -15 -7 2 -10 0 -7
-5 3 -6 2 -10 -4 -10 -6 0 -13 -11 -17 -25 -3 -13 -11 -23 -17 -22 -6 1 -11
-8 -12 -20 0 -31 -37 -65 -71 -67 -16 -1 -44 -9 -63 -19 -32 -16 -35 -16 -48
1 -13 15 -14 14 -8 -11 4 -20 2 -28 -7 -26 -25 3 -39 -1 -34 -10 4 -5 2 -11
-4 -13 -6 -2 13 -22 42 -45 29 -23 71 -61 93 -84 l40 -42 -47 32 c-26 17 -50
36 -54 42 -9 15 -84 49 -108 49 -12 0 5 -18 48 -51 36 -28 66 -55 66 -60 0 -5
6 -9 13 -9 8 0 22 -10 33 -22 10 -12 15 -19 9 -16 -41 21 -288 173 -365 224
-52 34 -138 83 -190 108 -52 25 -105 53 -118 62 -17 13 -21 13 -17 3 6 -16
132 -96 243 -155 40 -21 94 -58 120 -82 26 -24 36 -37 22 -28 -40 25 -132 78
-177 102 -42 23 -93 57 -192 129 -30 22 -64 41 -75 42 -25 4 -53 36 -36 41 6
2 36 -6 66 -18 62 -25 86 -20 31 6 -20 10 -34 21 -32 25 7 11 -83 0 -150 -18
-71 -19 -334 -124 -369 -146 l-24 -16 34 -66 c19 -36 34 -72 34 -80 0 -17 63
-85 79 -85 8 0 10 8 6 19 -5 18 -2 19 32 14 21 -3 42 -10 48 -14 5 -5 19 -9
32 -9 13 0 22 -3 22 -7 -3 -20 2 -24 16 -13 9 8 13 21 9 36 -4 15 -2 24 5 24
14 0 15 57 1 65 -8 5 -7 12 1 22 11 12 10 14 -2 12 -23 -4 -69 12 -69 25 0 6
-4 5 -9 -3 -7 -11 -11 -8 -17 10 l-8 24 -6 -25 -6 -25 -13 23 c-15 28 -13 31
25 39 68 13 144 -1 144 -26 0 -4 7 -8 15 -8 8 0 15 1 15 2 0 5 -41 79 -50 89
-6 8 -13 23 -15 35 -2 12 -7 27 -11 34 -15 27 15 -11 60 -74 54 -79 155 -172
219 -205 122 -63 150 -74 167 -69 11 4 20 3 20 -2 0 -9 48 -33 68 -33 7 0 11
-3 9 -7 -3 -5 6 -8 19 -8 14 0 24 6 25 15 0 10 2 11 6 3 2 -7 10 -13 17 -13 6
0 36 -16 66 -35 55 -34 56 -34 173 -35 l117 0 0 33 c0 21 12 48 38 82 20 28
46 63 56 80 35 54 108 124 170 164 90 58 181 144 173 165 -4 9 -16 16 -27 16
-21 0 -22 2 -19 235 3 221 -1 275 -15 223z"/>
<path d="M803 631 c-20 -31 -77 -53 -110 -41 l-28 11 21 -21 21 -22 39 20 c39
20 81 58 73 67 -3 2 -10 -4 -16 -14z"/>
<path d="M1867 634 c3 -7 9 -14 14 -14 14 0 10 17 -5 23 -10 4 -13 1 -9 -9z"/>
<path d="M52 612 c-49 -3 -52 -5 -52 -29 0 -25 1 -26 56 -20 31 3 61 10 66 15
6 6 27 7 49 5 31 -5 39 -2 39 10 0 18 -29 27 -75 24 -16 -1 -54 -3 -83 -5z"/>
<path d="M460 550 c-8 -5 -12 -12 -9 -15 4 -3 12 1 19 10 14 17 11 19 -10 5z"/>
<path d="M1571 546 c-9 -10 -8 -16 4 -26 9 -8 15 -8 15 -2 0 6 9 14 20 17 11
3 20 11 20 16 0 14 -46 11 -59 -5z"/>
<path d="M1642 518 c-1 -23 -7 -45 -13 -49 -8 -5 -8 -9 1 -14 7 -4 16 -2 20 5
5 9 9 9 14 1 4 -6 15 -15 25 -21 17 -9 18 -7 6 23 -42 111 -51 119 -53 55z"/>
<path d="M2907 515 c-3 -19 -15 -48 -27 -64 l-20 -30 22 -45 c12 -25 28 -46
36 -46 12 0 14 16 8 93 l-6 92 41 -45 c31 -35 39 -40 34 -22 -6 21 -4 23 15
17 l23 -7 -24 43 c-21 38 -29 44 -60 47 -34 3 -36 1 -42 -33z"/>
<path d="M3059 503 c26 -38 49 -56 33 -27 -6 11 -20 28 -33 39 l-23 20 23 -32z"/>
<path d="M2620 391 c0 -6 4 -13 10 -16 6 -3 7 1 4 9 -7 18 -14 21 -14 7z"/>
<path d="M2595 290 c4 -47 13 -95 21 -108 14 -21 16 -21 31 -7 15 15 21 84 8
104 -3 6 3 14 12 20 10 6 13 11 6 11 -7 0 -29 14 -49 32 l-36 32 7 -84z"/>
<path d="M1336 236 c-3 -11 -3 -22 -1 -25 3 -2 5 1 5 8 0 7 5 9 10 6 6 -3 10
1 10 9 0 10 6 13 15 10 8 -4 15 -1 15 5 0 20 -48 8 -54 -13z"/>
<path d="M1380 199 c0 -4 7 -9 15 -13 9 -3 15 0 15 8 0 7 -7 13 -15 13 -8 0
-15 -4 -15 -8z"/>
<path d="M535 59 c-11 -17 1 -21 15 -4 8 9 8 15 2 15 -6 0 -14 -5 -17 -11z"/>
<path d="M1216 44 c-8 -22 4 -44 25 -44 10 0 19 4 19 10 0 5 -8 7 -17 4 -17
-5 -17 -5 0 6 22 14 22 26 -2 33 -12 3 -22 -1 -25 -9z"/>
<path d="M559 27 c6 -8 8 -17 4 -21 -4 -4 0 -4 10 -1 14 6 14 9 2 21 -17 18
-31 18 -16 1z"/>
<path d="M85 10 c-3 -5 1 -10 10 -10 9 0 13 5 10 10 -3 6 -8 10 -10 10 -2 0
-7 -4 -10 -10z"/>
</g>
</svg>
